<?xml version="1.0" standalone="no"?>
<!DOCTYPE svg PUBLIC "-//W3C//DTD SVG 20010904//EN"
 "http://www.w3.org/TR/2001/REC-SVG-20010904/DTD/svg10.dtd">
<svg version="1.0" xmlns="http://www.w3.org/2000/svg"
 width="360.000000pt" height="360.000000pt" viewBox="0 0 360.000000 360.000000"
 preserveAspectRatio="xMidYMid meet">

<g transform="translate(0.000000,360.000000) scale(0.100000,-0.100000)"
fill="#000000" stroke="none">
<path d="M743 3116 l-28 -24 -3 -1290 -2 -1290 26 -31 c21 -25 33 -31 67 -31
35 0 73 21 291 158 381 241 742 469 1271 801 264 167 490 314 503 327 26 29
29 79 7 111 -8 11 -36 34 -62 51 -26 16 -154 96 -283 177 -129 82 -422 266
-650 410 -721 455 -996 627 -1027 644 -35 18 -80 13 -110 -13z"/>
</g>
</svg>
