<?xml version="1.0" encoding="UTF-8" standalone="no"?>
<svg
   id="Camada_1"
   data-name="Camada 1"
   viewBox="0 0 359.95217 83.080235"
   version="1.1"
   sodipodi:docname="logoVerboMAX.svg"
   width="359.95215"
   height="83.080238"
   inkscape:version="1.4.2 (f4327f4, 2025-05-13)"
   xmlns:inkscape="http://www.inkscape.org/namespaces/inkscape"
   xmlns:sodipodi="http://sodipodi.sourceforge.net/DTD/sodipodi-0.dtd"
   xmlns:xlink="http://www.w3.org/1999/xlink"
   xmlns="http://www.w3.org/2000/svg"
   xmlns:svg="http://www.w3.org/2000/svg">
  <sodipodi:namedview
     id="namedview10"
     pagecolor="#505050"
     bordercolor="#eeeeee"
     borderopacity="1"
     inkscape:showpageshadow="0"
     inkscape:pageopacity="0"
     inkscape:pagecheckerboard="0"
     inkscape:deskcolor="#505050"
     showgrid="false"
     inkscape:zoom="2.56"
     inkscape:cx="214.45313"
     inkscape:cy="-46.289063"
     inkscape:window-width="1920"
     inkscape:window-height="1009"
     inkscape:window-x="-8"
     inkscape:window-y="-8"
     inkscape:window-maximized="1"
     inkscape:current-layer="Camada_1" />
  <defs
     id="defs1">
    <inkscape:path-effect
       effect="bend_path"
       id="path-effect4"
       is_visible="true"
       lpeversion="1"
       bendpath="m 1.4625,36.219287 c 118.97547,-19.369694 235.66009,-18.121737 350.46984,0"
       prop_scale="1"
       scale_y_rel="false"
       vertical="false"
       hide_knot="false"
       bendpath-nodetypes="cc" />
    <inkscape:path-effect
       effect="bend_path"
       id="path-effect3"
       is_visible="true"
       lpeversion="1"
       bendpath="M 21.251205,744.32041 H 368.47025"
       prop_scale="1"
       scale_y_rel="false"
       vertical="false"
       hide_knot="false" />
    <rect
       x="131.25"
       y="4.6875"
       width="256.25"
       height="73.4375"
       id="rect19" />
    <linearGradient
       id="linearGradient17"
       inkscape:collect="always">
      <stop
         style="stop-color:#ff003a;stop-opacity:1;"
         offset="0"
         id="stop17" />
      <stop
         style="stop-color:#ff003a;stop-opacity:0;"
         offset="1"
         id="stop18" />
    </linearGradient>
    <rect
       x="-0.78125"
       y="0.78125"
       width="341.40625"
       height="69.53125"
       id="rect11" />
    <style
       id="style1">.cls-1{fill:#ff003a;}</style>
    <linearGradient
       inkscape:collect="always"
       xlink:href="#linearGradient17"
       id="linearGradient18"
       x1="-0.72851562"
       y1="7.2924514"
       x2="67.158203"
       y2="7.2924514"
       gradientUnits="userSpaceOnUse" />
  </defs>
  <g
     id="g3"
     transform="translate(4.146855,13.023963)">
    <path
       style="font-weight:bold;font-family:Arial;-inkscape-font-specification:'Arial Bold';white-space:pre;fill:#ffffff;fill-opacity:0.72;stroke-width:1"
       d="M 24.760847,67.305161 C 16.565414,45.451235 8.0458114,23.67903 -0.79935146,1.9952902 2.4156919,1.4826549 5.632736,0.98444541 8.8516667,0.50062916 15.084262,16.631195 21.146391,32.805787 27.038578,49.021907 28.13681,31.826668 29.404394,14.626202 30.840515,-2.5772427 c 3.156552,-0.409394 6.314661,-0.8050867 9.474219,-1.1871087 -2.54346,23.2746734 -4.754628,46.5489314 -6.631109,69.8162894 -2.976174,0.404634 -5.95047,0.822365 -8.922778,1.253223 z M 52.808594,63.634611 44.873943,-4.3060041 C 55.816394,-5.5829897 66.775602,-6.6963222 77.747135,-7.6472694 L 78.746273,3.8805449 C 70.845292,4.5653495 62.951079,5.3352943 55.065343,6.1908678 l 1.636234,15.0754082 c 7.235742,-0.785247 14.4791,-1.49732 21.728695,-2.136616 l 1.012337,11.479826 c -7.172738,0.632522 -14.339028,1.337091 -21.497494,2.114101 l 2.008791,18.507965 c 7.826832,-0.849829 15.663769,-1.611421 23.508916,-2.285319 l 0.986344,11.4821 C 73.885017,61.335776 63.336565,62.40408 52.808594,63.634611 Z M 91.614288,59.837696 86.227967,-8.3498292 c 6.291659,-0.4971237 12.58699,-0.9410135 18.885163,-1.331908 4.75058,-0.2948439 8.23852,0.1411083 10.44271,1.2695012 2.22541,1.0976233 4.05818,3.1866526 5.49462,6.2630505 1.43676,3.07709133 2.24019,6.6354219 2.42776,10.6756105 0.23796,5.125665 -0.52852,9.414148 -2.26984,12.861068 -1.74402,3.418225 -4.47228,5.658025 -8.19217,6.741649 1.97461,1.63251 3.61776,3.459842 4.93248,5.477689 1.3312,2.012355 3.16821,5.633782 5.46142,10.844347 1.93592,4.360448 3.85067,8.726131 5.74427,13.096891 -3.36502,0.145141 -6.72914,0.306303 -10.0922,0.483528 -2.29449,-4.847419 -4.61718,-9.687393 -6.9681,-14.519675 -2.50143,-5.170658 -4.24008,-8.434241 -5.13501,-9.738554 -0.90403,-1.345773 -1.83147,-2.237156 -2.77962,-2.674094 -0.94978,-0.467786 -2.42069,-0.636259 -4.408747,-0.498558 -0.584762,0.0405 -1.16949,0.08148 -1.754182,0.122937 l 2.019649,28.483115 c -2.808266,0.199012 -5.615589,0.409313 -8.421882,0.630928 z m 5.630015,-40.004647 c 2.155697,-0.152866 4.311847,-0.299331 6.468407,-0.439404 4.19764,-0.272646 6.79561,-0.699372 7.81156,-1.320604 1.01265,-0.619226 1.7775,-1.627972 2.29485,-3.027406 0.51726,-1.399161 0.72169,-3.124192 0.60964,-5.1738807 -0.12566,-2.2987387 -0.62421,-4.1245311 -1.50097,-5.4779928 -0.85826,-1.3852289 -2.01995,-2.2232131 -3.48256,-2.5111362 -0.72305,-0.1119135 -2.90206,-0.065145 -6.49725,0.1672899 -2.31088,0.1494018 -4.621326,0.3060222 -6.931304,0.4698734 0.409209,5.7710869 0.818418,11.5421734 1.227627,17.3132604 z m 33.843747,-30.826525 c 5.92997,-0.231121 11.86144,-0.415645 17.79371,-0.553771 3.52128,-0.08199 6.1519,0.105969 7.87763,0.543897 1.74739,0.406987 3.30844,1.3187898 4.67845,2.7331279 1.3904,1.414317 2.54855,3.3155018 3.47449,5.7027178 0.92577,2.35637648 1.39595,5.0121185 1.41958,7.9678453 0.0256,3.2040185 -0.50915,6.148687 -1.59172,8.834121 -1.06289,2.685509 -2.51994,4.707948 -4.37109,6.07044 2.65424,1.177969 4.69843,3.227905 6.131,6.141051 1.43304,2.914068 2.15243,6.346511 2.17645,10.298178 0.0189,3.111024 -0.41823,6.146735 -1.30028,9.108712 -0.86294,2.93037 -2.05947,5.289638 -3.58736,7.078795 -1.50951,1.758323 -3.38119,2.85458 -5.62138,3.294558 -1.42298,0.27462 -4.78253,0.477156 -10.18344,0.676815 -4.74734,0.1206 -9.49346,0.272871 -14.23791,0.456934 -0.88605,-22.784474 -1.77209,-45.568947 -2.65813,-68.353421 z m 9.33923,11.06552633 0.48925,15.81091167 c 1.91654,-0.05934 3.83323,-0.113709 5.75006,-0.163107 3.42481,-0.08826 5.53541,-0.205784 6.36877,-0.379203 1.49656,-0.309976 2.65842,-1.13935 3.48787,-2.491277 0.84847,-1.382937 1.25821,-3.1787921 1.22363,-5.3870446 -0.0331,-2.1154505 -0.43838,-3.8199243 -1.2203,-5.1139778 -0.76224,-1.325095 -1.88861,-2.11465074 -3.3774,-2.36540774 -0.87484,-0.136582 -3.43217,-0.16830307 -7.61128,-0.05773238 -1.70363,0.04507455 -3.40717,0.09401888 -5.1106,0.14683785 z m 0.84139,27.19103767 0.56574,18.282818 c 2.63434,-0.08134 5.26907,-0.153018 7.90412,-0.21505 3.07988,-0.0725 5.02453,-0.246017 5.84959,-0.541868 1.26336,-0.396248 2.27827,-1.314812 3.04738,-2.757789 0.78765,-1.473875 1.1671,-3.424447 1.13261,-5.850404 -0.0292,-2.053274 -0.36446,-3.790433 -1.00987,-5.212242 -0.64527,-1.421564 -1.56985,-2.449401 -2.77374,-3.081788 -1.18181,-0.631368 -3.75539,-0.91499 -7.70462,-0.818103 -2.3373,0.05734 -4.67439,0.122146 -7.01121,0.194426 z m 32.91958,-4.491764 c -0.007,-6.972139 0.6456,-12.815644 1.9866,-17.5471778 1.00007,-3.484139 2.36802,-6.6080273 4.11005,-9.3700173 1.76196,-2.7616117 3.69434,-4.8025357 5.78984,-6.1211449 2.78698,-1.778643 6.00407,-2.641436 9.63187,-2.577518 6.57067,0.115767 11.7477,3.3895171 15.4489,9.7614483 3.72783,6.3837378 5.33139,15.1327157 4.92474,26.2718987 -0.40269,11.030641 -2.60727,19.619591 -6.49927,25.743898 -3.89815,6.10438 -8.87514,9.07575 -15.01423,8.965574 -6.21501,-0.111539 -11.12031,-3.243387 -14.79826,-9.451177 -3.67114,-6.227574 -5.56899,-14.794744 -5.58024,-25.675784 z m 8.9874,-0.439627 c -0.0546,7.742391 1.03071,13.638285 3.21086,17.668969 2.1834,4.005022 4.95998,6.030613 8.36193,6.091444 3.4019,0.06083 6.22974,-1.849017 8.51479,-5.743811 2.30192,-3.919845 3.58833,-9.852348 3.81388,-17.778807 0.22315,-7.841902 -0.70377,-13.7125485 -2.82275,-17.6309965 -2.09608,-3.9124954 -4.99458,-5.91063659 -8.66676,-5.975756 -3.67218,-0.06512 -6.66073,1.85976365 -8.9349,5.7571735 -2.27704,3.8717101 -3.42153,9.736325 -3.47705,17.611784 z m 38.14102,35.208948 2.90342,-68.362265 c 4.48036,0.189899 8.95949,0.405834 13.4371,0.647719 1.84819,15.68097 3.5878,31.36572 5.2191,47.053072 3.49883,-15.373959 7.10376,-30.7328914 10.81441,-46.0756798 4.48364,0.3044241 8.96539,0.6348128 13.44495,0.9910796 l -5.42749,68.2136912 c -2.612,-0.207921 -5.22466,-0.406521 -7.83791,-0.59578 l 3.88822,-53.7248423 c -4.19703,17.6984093 -8.25922,35.4174153 -12.18604,53.1554383 -2.7095,-0.175627 -5.41957,-0.341198 -8.13011,-0.496689 -1.73114,-18.083413 -3.59855,-36.163849 -5.60263,-54.2396939 l -2.67307,53.7963689 c -2.6163,-0.130219 -5.23298,-0.251033 -7.84995,-0.362419 z m 86.35481,7.094542 c -3.04631,-0.370898 -6.09411,-0.729183 -9.14329,-1.07482 -0.62833,-5.285618 -1.27389,-10.571187 -1.93669,-15.856617 -5.62905,-0.619364 -11.26269,-1.196172 -16.90023,-1.730227 -1.6527,5.047897 -3.28939,10.099145 -4.91005,15.153667 -2.97965,-0.272871 -5.96032,-0.533635 -8.94191,-0.78226 7.31674,-22.278897 14.96748,-44.489876 22.94934,-66.6252807 3.15235,0.3098313 6.30337,0.6324538 9.45295,0.9678373 3.4919,23.3107224 6.63464,46.6294504 9.42988,69.9477004 z M 295.08647,35.942574 c -1.05562,-8.626607 -2.15571,-17.252858 -3.30036,-25.878381 -2.82744,8.219224 -5.61229,16.447914 -8.35442,24.685728 3.88693,0.37745 7.77193,0.775022 11.65478,1.192653 z m 12.81208,28.720283 C 314.0799,53.425928 320.41017,42.238451 326.88802,31.103451 323.92288,19.697102 320.82799,8.299136 317.603,-3.0879853 c 3.47463,0.4284695 6.94724,0.8724567 10.41768,1.3319207 1.98768,7.6552027 3.91885,15.3141496 5.79362,22.9761486 3.84792,-6.86054 7.74802,-13.7028807 11.70003,-20.52640446 3.43274,0.50698086 6.86311,1.02910386 10.29097,1.56632886 -6.27055,10.2291406 -12.41765,20.5056776 -18.44025,30.8272756 3.19644,12.314923 6.23888,24.638996 9.12777,36.968991 -3.36101,-0.529643 -6.72447,-1.043954 -10.09021,-1.542887 -1.90636,-8.256556 -3.87968,-16.510313 -5.92009,-24.760358 -4.23512,7.372603 -8.40667,14.767745 -12.51429,22.184579 -3.35464,-0.440219 -6.71125,-0.865151 -10.06968,-1.274752 z"
       id="text11-9"
       aria-label="VERBOMAX"
       sodipodi:nodetypes="cccccccccccccccccccccccscsscccccccccsccccssssccscccscccsccssccccccccscssccscccsccsscscscccscscscsscscscscscccccccccccccccccccccccccccccccccccccccc" />
    <g
       id="g27"
       transform="translate(-19.688705,-708.16249)"
       style="fill:#d4af37;fill-opacity:1">
      <g
         id="g26"
         style="fill:#d4af37;fill-opacity:1">
        <g
           id="g25"
           style="fill:#d4af37;fill-opacity:1">
          <path
             style="font-weight:bold;font-family:Arial;-inkscape-font-specification:'Arial Bold';white-space:pre;fill:#d4af37;fill-opacity:1;stroke-width:1"
             d="M 41.306455,775.8042 C 33.043049,753.97537 24.455311,732.22922 15.54185,710.57251 c 3.214013,-0.52266 6.430066,-1.03087 9.648044,-1.52468 6.283163,16.11155 12.395773,32.26762 18.338354,48.46573 1.045603,-17.19892 2.260741,-34.40352 3.6446,-51.61156 3.155794,-0.41911 6.313181,-0.82451 9.472056,-1.21622 -2.47303,23.28262 -4.613397,46.56394 -6.418707,69.83746 -2.9752,0.41386 -5.948483,0.84084 -8.919742,1.28096 z m 28.038979,-3.75738 -8.142281,-67.91667 c 10.940205,-1.3105 21.897616,-2.45719 32.867798,-3.44136 l 1.033982,11.52474 c -7.89993,0.70874 -15.792855,1.5027 -23.677065,2.38236 l 1.682164,15.07046 c 7.234241,-0.80737 14.476302,-1.5415 21.724805,-2.20279 l 1.047055,11.47672 c -7.171583,0.65429 -14.336513,1.3807 -21.493415,2.17962 l 2.06518,18.50187 c 7.824977,-0.87381 15.660314,-1.65929 23.504115,-2.35701 l 1.021038,11.47906 c -10.562219,0.93953 -21.108274,2.04007 -31.633376,3.303 z m 38.797266,-3.91537 -5.59187,-68.17086 c 6.29102,-0.51612 12.58586,-0.97896 18.88368,-1.38875 4.75032,-0.30909 8.24,0.11641 10.44784,1.23819 2.22897,1.09096 4.06817,3.17449 5.51394,6.24657 1.44609,3.07276 2.2602,6.62865 2.45982,10.66822 0.25325,5.12492 -0.50056,9.41563 -2.23177,12.86771 -1.73404,3.42341 -4.45587,5.67135 -8.17289,6.76613 1.97968,1.62656 3.62844,3.44896 4.9493,5.46284 1.33733,2.00835 3.18531,5.62424 5.49425,10.82787 1.94906,4.35461 3.87695,8.71452 5.78369,13.07957 -3.36483,0.15519 -6.72871,0.32642 -10.09148,0.51372 -2.30913,-4.84048 -4.64646,-9.67344 -7.01204,-14.49861 -2.51707,-5.16309 -4.26567,-8.42144 -5.16457,-9.72303 -0.90814,-1.34305 -1.83835,-2.23164 -2.7879,-2.66572 -0.95127,-0.46492 -2.42283,-0.62897 -4.41067,-0.48527 -0.5847,0.0423 -1.16936,0.085 -1.75398,0.12822 l 2.10526,28.47682 c -2.80787,0.20748 -5.61477,0.42627 -8.42061,0.65638 z m 5.51039,-40.0214 c 2.15548,-0.15936 4.31142,-0.31231 6.4678,-0.45887 4.19725,-0.28527 6.79421,-0.71977 7.80842,-1.34406 1.01093,-0.62226 1.77284,-1.63327 2.28607,-3.03425 0.51313,-1.40071 0.71245,-3.12634 0.59428,-5.17567 -0.13253,-2.29833 -0.6366,-4.12259 -1.5175,-5.47343 -0.8625,-1.38263 -2.02682,-2.21713 -3.49048,-2.50066 -0.72346,-0.10975 -2.9026,-0.0565 -6.49752,0.18679 -2.31071,0.15634 -4.62097,0.31991 -6.93074,0.49072 0.42656,5.76981 0.85311,11.53962 1.27967,17.30943 z m 33.75572,-30.92758 c 5.93003,-0.24878 11.86169,-0.45091 17.79427,-0.60661 3.52147,-0.0924 6.15296,0.0878 7.88019,0.5206 1.7488,0.40182 3.31273,1.309 4.68706,2.71926 1.39474,1.41019 2.55863,3.30793 3.49172,5.69238 0.93281,2.35362 1.41087,5.00793 1.4432,7.96355 0.035,3.20389 -0.4911,6.1501 -1.56588,8.83868 -1.05508,2.6886 -2.5063,4.71532 -4.35362,6.08325 2.65797,1.17011 4.7084,3.21399 6.14969,6.12287 1.44173,2.90981 2.1713,6.34009 2.20695,10.29162 0.0281,3.11092 -0.40015,6.14787 -1.27355,9.1124 -0.85438,2.93288 -2.04406,5.29565 -3.56677,7.08928 -1.50445,1.76275 -3.37303,2.86452 -5.61207,3.31111 -1.4223,0.27883 -4.78145,0.49129 -10.18218,0.70696 -4.74732,0.13469 -9.49332,0.30108 -14.23757,0.49929 z m 9.37318,11.03762 0.53616,15.80924 c 1.91656,-0.065 3.83329,-0.12509 5.75017,-0.18017 3.42492,-0.0984 5.53534,-0.22218 6.3683,-0.39807 1.4958,-0.3144 2.65533,-1.1472 3.48087,-2.50156 0.84448,-1.38542 1.24895,-3.18245 1.20785,-5.39059 -0.0394,-2.11532 -0.44968,-3.81856 -1.23554,-5.11028 -0.76623,-1.32283 -1.89505,-2.10905 -3.38475,-2.3554 -0.87535,-0.13399 -3.43307,-0.15815 -7.61233,-0.0352 -1.70368,0.0501 -3.40726,0.10414 -5.11073,0.16202 z m 0.92206,27.18817 0.61998,18.28089 c 2.63431,-0.0892 5.26904,-0.16867 7.90412,-0.23851 3.07991,-0.0816 5.02421,-0.2609 5.84847,-0.5592 1.26228,-0.39998 2.27456,-1.32153 3.03947,-2.76676 0.78339,-1.47618 1.15711,-3.42783 1.11545,-5.85365 -0.0352,-2.05316 -0.37567,-3.78931 -1.02534,-5.2092 -0.64953,-1.41962 -1.57722,-2.44471 -2.78308,-3.07353 -1.18378,-0.62786 -3.75845,-0.90387 -7.70776,-0.79528 -2.33736,0.0643 -4.67447,0.13601 -7.01131,0.21524 z m 32.90946,-4.58901 c -0.0277,-6.972 0.60798,-12.81734 1.93521,-17.55276 0.98993,-3.48702 2.34888,-6.61488 4.08299,-9.38196 1.75404,-2.76673 3.68065,-4.81329 5.77253,-6.13803 2.78208,-1.78679 5.99702,-2.65898 9.62544,-2.60567 6.5718,0.0965 11.75899,3.35516 15.47919,9.71623 3.74686,6.3728 5.37609,15.11701 5.00185,26.25723 -0.37059,11.03165 -2.55036,19.6269 -6.42481,25.76244 -3.88065,6.11564 -8.84933,9.10147 -14.98918,9.00923 -6.2158,-0.0934 -11.1306,-3.2108 -14.82706,-9.40771 -3.6897,-6.21669 -5.61292,-14.77815 -5.65616,-25.659 z m 8.98696,-0.46602 c -0.0319,7.74244 1.07082,13.63507 3.26296,17.65929 2.19532,3.99857 4.97806,6.016 8.38045,6.06689 3.40236,0.0509 6.22483,-1.86718 8.49871,-5.76858 2.29066,-3.92649 3.55988,-9.86266 3.76232,-17.78967 0.20028,-7.84245 -0.74386,-13.7103 -2.87452,-17.62253 -2.10774,-3.90631 -5.01239,-5.89596 -8.68518,-5.95034 -3.67278,-0.0544 -6.65602,1.87921 -8.919,5.78322 -2.26592,3.87834 -3.39333,9.74621 -3.42574,17.62172 z m 38.24713,35.09724 2.70479,-68.36982 c 4.48142,0.17689 8.9617,0.37984 13.44052,0.60876 1.89393,15.67545 3.67921,31.35501 5.35612,47.0375 3.4546,-15.3839 7.01542,-30.75308 10.68207,-46.10643 4.48504,0.29149 8.96826,0.60897 13.44936,0.95236 l -5.23103,68.22879 c -2.61281,-0.20043 -5.22626,-0.39153 -7.84027,-0.57328 l 3.73323,-53.73557 c -4.14629,17.71034 -8.15759,35.44088 -12.03338,53.19004 -2.71023,-0.16783 -5.42099,-0.32559 -8.1322,-0.47325 -1.7837,-18.07823 -3.70377,-36.15305 -5.76058,-54.22288 l -2.51705,53.80346 c -2.61688,-0.12265 -5.23409,-0.23588 -7.85158,-0.33968 z m 86.38255,6.847 c -3.04766,-0.36226 -6.09679,-0.71189 -9.14725,-1.04886 -0.64356,-5.28384 -1.30435,-10.56757 -1.9824,-15.85111 -5.63138,-0.60334 -11.26722,-1.16407 -16.90684,-1.68201 -1.63831,5.0526 -3.2606,10.1085 -4.86684,15.16764 -2.98069,-0.26436 -5.96237,-0.51659 -8.94494,-0.75668 7.2531,-22.29971 14.8406,-44.53249 22.75964,-66.69066 3.15361,0.30081 6.30592,0.61441 9.45683,0.94079 3.55938,23.3007 6.76942,46.61049 9.6318,69.92089 z m -12.66861,-28.65684 c -1.08054,-8.6236 -2.20557,-17.2467 -3.37517,-25.86893 -2.8041,8.22729 -5.56555,16.46392 -8.28423,24.70954 3.8884,0.36634 7.77494,0.75282 11.6594,1.15939 z m 12.89576,28.68386 c 6.14972,-11.2545 12.44858,-22.45999 18.89526,-33.61343 -2.99814,-11.39801 -6.12606,-22.78723 -9.38412,-34.16519 3.47627,0.41858 6.95057,0.85268 10.42275,1.30228 2.00986,7.64959 3.96319,15.3031 5.86011,22.95984 3.82872,-6.87151 7.7097,-13.72496 11.64266,-20.55976 3.4346,0.49725 6.86688,1.00966 10.29671,1.53718 -6.24208,10.24702 -12.3605,20.54106 -18.35425,30.8798 3.23204,12.30599 6.31004,24.62162 9.23446,36.94365 -3.36288,-0.52018 -6.72816,-1.02502 -10.09567,-1.51446 -1.93016,-8.25127 -3.9273,-16.49953 -5.99154,-24.74386 -4.21447,7.38465 -8.36528,14.79166 -12.45206,22.22017 -3.35623,-0.43072 -6.71438,-0.84615 -10.07431,-1.24622 z"
             id="text11"
             aria-label="VERBOMAX" />
        </g>
      </g>
    </g>
  </g>
  <text
     xml:space="preserve"
     id="text19"
     style="font-style:normal;font-variant:normal;font-weight:bold;font-stretch:normal;font-family:Arial;-inkscape-font-specification:'Arial Bold';text-align:center;writing-mode:lr-tb;direction:ltr;white-space:pre;shape-inside:url(#rect19);display:inline;opacity:1;vector-effect:none;fill:#ff003a;fill-opacity:1;stroke-width:1;stroke-linecap:butt;stroke-linejoin:miter;stroke-miterlimit:4;stroke-dasharray:none;stroke-dashoffset:0;stroke-opacity:1;-inkscape-stroke:none"
     transform="translate(-17.104355,-707.91978)" />
</svg>
